<svg width="744" height="746" viewBox="0 0 744 746" fill="none" xmlns="http://www.w3.org/2000/svg">
<line x1="738.768" y1="5.76777" x2="8.76781" y2="735.768" stroke="white" stroke-width="5"/>
<path d="M46.3569 354.576C33.0944 353.989 21.7803 364.274 22.1043 377.545C23.591 438.441 40.955 498.048 72.6665 550.382C108.54 609.584 161.164 656.82 223.884 686.114C286.603 715.409 356.601 725.447 425.025 714.96C493.449 704.473 557.227 673.931 608.294 627.196C659.36 580.462 695.421 519.634 711.917 452.404C728.413 385.175 724.603 314.564 700.968 249.5C677.333 184.437 634.936 127.843 579.137 86.875C529.812 50.6607 471.973 28.0947 411.447 21.2298C398.256 19.7337 387.011 30.0942 386.424 43.3566V43.3566C385.836 56.6191 396.134 67.7481 409.307 69.3884C460.329 75.7412 509.027 95.0412 550.685 125.627C598.82 160.967 635.394 209.788 655.782 265.914C676.17 322.041 679.457 382.953 665.227 440.948C650.997 498.943 619.889 551.416 575.837 591.731C531.785 632.046 476.768 658.393 417.742 667.44C358.716 676.487 298.333 667.827 244.228 642.556C190.124 617.286 144.728 576.538 113.782 525.468C86.9994 481.269 72.0804 431.055 70.2635 379.672C69.7943 366.404 59.6193 355.164 46.3569 354.576V354.576Z" fill="white"/>
<circle cx="372" cy="369" r="275" fill="url(#paint0_linear)"/>
<path d="M240.408 385.104C233.837 378.181 230.552 366.389 230.552 349.728C230.552 334.709 233.661 321.92 239.88 311.36C243.987 304.32 248.797 300.8 254.312 300.8C259.592 300.8 262.232 306.725 262.232 318.576C262.232 325.968 260.941 335.413 258.36 346.912C255.896 358.293 252.083 369.968 246.92 381.936C249.971 385.339 253.608 387.04 257.832 387.04C257.245 389.387 255.485 390.56 252.552 390.56C249.736 390.56 246.92 389.797 244.104 388.272C238.472 400.123 232.195 409.685 225.272 416.96C218.349 424.235 211.251 427.872 203.976 427.872C189.075 427.872 181.624 420.011 181.624 404.288C181.624 396.192 183.325 386.453 186.728 375.072C190.131 363.691 193.533 352.251 196.936 340.752C200.339 329.136 202.04 319.163 202.04 310.832C202.04 302.384 199.869 295.872 195.528 291.296C191.187 286.72 185.203 284.432 177.576 284.432C165.843 284.432 156.28 290.416 148.888 302.384C143.139 311.888 140.264 321.92 140.264 332.48C140.264 345.856 144.195 354.363 152.056 358C154.403 359.056 156.925 359.584 159.624 359.584C168.659 359.584 175.523 354.539 180.216 344.448C180.451 343.979 180.803 343.744 181.272 343.744C181.859 343.627 182.328 343.744 182.68 344.096C183.149 344.448 183.267 344.859 183.032 345.328C180.803 350.843 177.693 355.301 173.704 358.704C169.715 361.989 165.021 363.632 159.624 363.632C149.064 363.632 141.907 358.293 138.152 347.616C136.627 343.04 135.864 337.877 135.864 332.128C135.864 326.379 137.096 319.925 139.56 312.768C144.136 299.275 151.469 289.771 161.56 284.256C166.605 281.557 171.944 280.208 177.576 280.208C188.371 280.208 196.643 283.904 202.392 291.296C208.141 298.571 211.016 308.251 211.016 320.336C211.016 329.136 209.491 339.344 206.44 350.96C203.507 362.576 200.515 373.723 197.464 384.4C194.413 395.077 192.888 403.115 192.888 408.512C192.888 413.909 193.651 417.781 195.176 420.128C196.819 422.357 199.693 423.472 203.8 423.472C210.488 423.472 216.941 419.952 223.16 412.912C229.496 405.872 235.245 396.603 240.408 385.104ZM257.48 317.168C257.48 310.011 256.131 306.432 253.432 306.432C250.851 306.432 248.387 309.131 246.04 314.528C241.581 324.501 239.352 336.704 239.352 351.136C239.352 362.165 240.819 370.731 243.752 376.832C251.613 356.651 256.131 338.347 257.304 321.92C257.421 320.277 257.48 318.693 257.48 317.168ZM281.728 398.304C281.728 412.501 286.773 419.6 296.864 419.6C300.619 419.6 304.549 417.957 308.656 414.672C312.88 411.269 316.693 407.221 320.096 402.528C327.605 391.733 332.885 382.933 335.936 376.128L338.224 371.2H342.976C340.981 375.893 338.048 381.701 334.176 388.624C330.304 395.429 326.608 401.179 323.088 405.872C319.568 410.565 315.403 414.848 310.592 418.72C305.781 422.475 301.205 424.352 296.864 424.352C279.499 424.352 270.816 414.613 270.816 395.136C270.816 386.101 273.456 377.067 278.736 368.032C286.011 355.477 294.987 349.2 305.664 349.2C313.173 349.2 316.928 353.307 316.928 361.52C316.928 367.621 314.581 373.957 309.888 380.528C303.317 389.445 295.632 393.963 286.832 394.08C285.541 394.08 284.72 393.493 284.368 392.32L284.192 391.616C290.293 391.616 296.101 387.627 301.616 379.648C307.248 371.552 310.064 364.805 310.064 359.408C310.064 355.771 308.656 353.952 305.84 353.952C299.621 353.952 293.813 359.408 288.416 370.32C283.957 379.589 281.728 388.917 281.728 398.304ZM376.673 313.648C380.897 302.619 383.009 295.109 383.009 291.12C383.009 287.131 382.012 285.019 380.017 284.784C374.502 284.784 368.753 293.643 362.769 311.36C356.902 328.96 352.268 347.264 348.865 366.272C345.58 385.163 343.937 398.539 343.937 406.4C343.937 419.659 347.222 426.288 353.793 426.288C353.793 427.109 353.265 427.931 352.209 428.752C351.153 429.573 349.921 429.984 348.513 429.984C338.892 429.984 334.081 421.36 334.081 404.112C334.081 397.776 335.254 388.096 337.601 375.072C339.948 361.931 342.998 348.203 346.753 333.888C350.508 319.573 355.377 307.136 361.361 296.576C367.345 285.899 373.446 280.56 379.665 280.56C384.593 280.56 387.057 283.669 387.057 289.888C387.057 294.581 385.59 301.152 382.657 309.6C377.025 326.027 368.929 342.453 358.369 358.88C355.553 363.221 353.03 366.741 350.801 369.44C350.214 370.144 349.921 369.909 349.921 368.736C349.804 366.507 350.332 364.571 351.505 362.928C361.126 348.496 369.516 332.069 376.673 313.648ZM384.737 424.176C375.467 424.176 370.833 417.195 370.833 403.232C370.833 395.136 372.945 386.277 377.169 376.656C383.035 363.632 390.486 355.125 399.521 351.136C402.689 349.845 405.857 349.2 409.025 349.2C412.31 349.2 414.891 350.139 416.769 352.016C418.646 353.893 419.585 356.005 419.585 358.352C419.585 359.408 418.998 359.936 417.825 359.936C416.769 359.819 416.241 359.232 416.241 358.176C416.241 357.12 415.654 356.181 414.481 355.36C413.425 354.421 411.841 353.952 409.729 353.952C402.337 353.952 395.649 360.581 389.665 373.84C384.033 386.16 381.217 397.835 381.217 408.864C381.217 415.669 382.683 419.072 385.617 419.072C388.667 419.072 392.305 416.549 396.529 411.504C400.87 406.341 404.859 400.357 408.497 393.552C416.358 379.237 420.993 370.027 422.401 365.92C423.809 361.813 425.334 359.76 426.977 359.76C429.91 359.76 431.377 362.224 431.377 367.152C431.377 368.677 431.201 370.437 430.849 372.432C426.977 391.205 424.865 402.059 424.513 404.992C424.278 407.925 424.161 410.037 424.161 411.328C424.161 416.96 425.51 419.776 428.209 419.776C431.259 419.776 435.542 415.728 441.057 407.632C446.571 399.536 451.323 391.44 455.313 383.344L461.297 371.2H466.049C465.345 372.608 464.406 374.544 463.233 377.008C462.177 379.355 460.006 383.637 456.721 389.856C453.435 395.957 450.267 401.355 447.217 406.048C444.283 410.741 440.939 415.024 437.185 418.896C433.547 422.651 430.379 424.528 427.681 424.528C418.998 424.528 414.657 418.192 414.657 405.52C414.657 401.296 415.126 396.368 416.065 390.736H414.833C402.865 413.029 392.833 424.176 384.737 424.176ZM458.38 424C455.094 424 453.452 421.477 453.452 416.432C453.452 413.733 456.737 394.08 463.308 357.472C463.66 355.008 464.716 353.776 466.476 353.776C468.588 353.776 470.172 355.301 471.228 358.352C471.814 359.995 472.108 361.813 472.108 363.808C472.108 365.685 471.873 367.739 471.404 369.968L468.588 384.048H469.644C480.204 360.347 490.294 348.496 499.916 348.496C503.67 348.496 506.545 349.669 508.54 352.016C510.534 354.245 511.532 357.355 511.532 361.344C511.532 365.333 509.948 373.957 506.78 387.216C503.612 400.475 502.028 409.685 502.028 414.848C502.028 422.475 503.436 426.288 506.252 426.288C506.252 427.109 505.724 427.931 504.668 428.752C503.612 429.573 502.38 429.984 500.972 429.984C494.166 429.984 490.764 424.645 490.764 413.968C490.764 407.397 492.524 397.483 496.044 384.224C499.681 370.848 501.5 362.341 501.5 358.704C501.5 354.949 500.033 353.072 497.1 353.072C492.876 353.072 487.772 358.587 481.788 369.616C475.921 380.645 471.169 391.205 467.532 401.296C464.012 411.269 461.958 417.547 461.372 420.128C460.902 422.709 459.905 424 458.38 424ZM536.962 398.304C536.962 412.501 542.008 419.6 552.098 419.6C555.853 419.6 559.784 417.957 563.89 414.672C568.114 411.269 571.928 407.221 575.33 402.528C582.84 391.733 588.12 382.933 591.17 376.128L593.459 371.2H598.21C596.216 375.893 593.282 381.701 589.41 388.624C585.538 395.429 581.842 401.179 578.322 405.872C574.802 410.565 570.637 414.848 565.826 418.72C561.016 422.475 556.44 424.352 552.098 424.352C534.733 424.352 526.05 414.613 526.05 395.136C526.05 386.101 528.69 377.067 533.97 368.032C541.245 355.477 550.221 349.2 560.898 349.2C568.408 349.2 572.162 353.307 572.162 361.52C572.162 367.621 569.816 373.957 565.123 380.528C558.552 389.445 550.866 393.963 542.066 394.08C540.776 394.08 539.954 393.493 539.602 392.32L539.426 391.616C545.528 391.616 551.336 387.627 556.85 379.648C562.482 371.552 565.299 364.805 565.299 359.408C565.299 355.771 563.891 353.952 561.075 353.952C554.856 353.952 549.048 359.408 543.651 370.32C539.192 379.589 536.962 388.917 536.962 398.304Z" fill="white"/>
<path d="M229.969 485.822L230.589 486.607L230.59 486.606L229.969 485.822ZM219.141 486.139H218.141V486.753L218.688 487.03L219.141 486.139ZM219.141 483.361L219.655 482.504L218.141 481.595V483.361H219.141ZM225.627 478.211L226.133 477.348L226.125 477.344L226.117 477.339L225.627 478.211ZM223.219 468.877L223.858 469.646L223.863 469.642L223.219 468.877ZM233.695 468.684L234.626 469.05L234.971 468.174L234.117 467.777L233.695 468.684ZM232.746 471.092L232.338 472.005L233.293 472.431L233.676 471.458L232.746 471.092ZM231.762 470.652L232.169 469.739L232.161 469.736L232.153 469.732L231.762 470.652ZM225.328 470.67L225.958 471.447L225.967 471.439L225.328 470.67ZM225.012 474.326L224.259 474.985L224.268 474.995L225.012 474.326ZM227.596 476.137L227.102 477.006L227.107 477.009L227.596 476.137ZM230.285 477.947L229.602 478.678L229.61 478.685L230.285 477.947ZM231.516 479.582L230.607 480L230.61 480.007L231.516 479.582ZM230.92 481.533C230.92 483.091 230.383 484.218 229.348 485.039L230.59 486.606C232.156 485.364 232.92 483.631 232.92 481.533H230.92ZM229.348 485.038C228.298 485.868 226.727 486.352 224.502 486.352V488.352C226.988 488.352 229.061 487.815 230.589 486.607L229.348 485.038ZM224.502 486.352C222.661 486.352 221.032 485.977 219.593 485.247L218.688 487.03C220.437 487.918 222.382 488.352 224.502 488.352V486.352ZM220.141 486.139V483.361H218.141V486.139H220.141ZM218.626 484.219C219.524 484.758 220.491 485.173 221.522 485.466L222.068 483.542C221.201 483.296 220.398 482.949 219.655 482.504L218.626 484.219ZM221.522 485.466C222.541 485.755 223.513 485.908 224.432 485.908V483.908C223.733 483.908 222.947 483.792 222.068 483.542L221.522 485.466ZM224.432 485.908C226.015 485.908 227.388 485.598 228.387 484.817L227.156 483.241C226.655 483.632 225.801 483.908 224.432 483.908V485.908ZM228.387 484.817C229.368 484.051 229.896 483.016 229.896 481.779H227.896C227.896 482.371 227.675 482.836 227.156 483.241L228.387 484.817ZM229.896 481.779C229.896 480.888 229.615 480.081 229.025 479.424L227.537 480.76C227.767 481.017 227.896 481.334 227.896 481.779H229.896ZM229.025 479.424C228.498 478.836 227.484 478.141 226.133 477.348L225.121 479.074C226.488 479.875 227.244 480.433 227.537 480.76L229.025 479.424ZM226.117 477.339C224.641 476.51 223.697 475.751 223.184 475.086L221.601 476.308C222.353 477.284 223.566 478.201 225.137 479.083L226.117 477.339ZM223.184 475.086C222.698 474.456 222.443 473.703 222.443 472.779H220.443C220.443 474.105 220.821 475.297 221.601 476.308L223.184 475.086ZM222.443 472.779C222.443 471.442 222.916 470.429 223.858 469.646L222.579 468.108C221.154 469.293 220.443 470.882 220.443 472.779H222.443ZM223.863 469.642C224.824 468.833 226.136 468.383 227.895 468.383V466.383C225.786 466.383 223.98 466.929 222.575 468.112L223.863 469.642ZM227.895 468.383C229.749 468.383 231.539 468.783 233.273 469.59L234.117 467.777C232.125 466.85 230.048 466.383 227.895 466.383V468.383ZM232.765 468.317L231.816 470.725L233.676 471.458L234.626 469.05L232.765 468.317ZM233.154 470.179L232.169 469.739L231.354 471.565L232.338 472.005L233.154 470.179ZM232.153 469.732C230.836 469.171 229.412 468.896 227.895 468.896V470.896C229.166 470.896 230.32 471.126 231.37 471.572L232.153 469.732ZM227.895 468.896C226.653 468.896 225.544 469.191 224.689 469.901L225.967 471.439C226.354 471.118 226.956 470.896 227.895 470.896V468.896ZM224.698 469.893C223.84 470.59 223.396 471.533 223.396 472.639H225.396C225.396 472.128 225.574 471.758 225.958 471.446L224.698 469.893ZM223.396 472.639C223.396 473.523 223.68 474.323 224.259 474.985L225.764 473.668C225.523 473.392 225.396 473.067 225.396 472.639H223.396ZM224.268 474.995C224.81 475.596 225.801 476.268 227.102 477.006L228.089 475.267C226.789 474.529 226.058 473.993 225.755 473.657L224.268 474.995ZM227.107 477.009C228.343 477.702 229.154 478.259 229.602 478.678L230.968 477.217C230.338 476.628 229.356 475.977 228.085 475.264L227.107 477.009ZM229.61 478.685C230.078 479.113 230.401 479.553 230.607 480L232.424 479.164C232.091 478.44 231.594 477.789 230.96 477.209L229.61 478.685ZM230.61 480.007C230.809 480.43 230.92 480.932 230.92 481.533H232.92C232.92 480.681 232.761 479.882 232.421 479.157L230.61 480.007ZM247.248 487L246.27 486.791L246.012 488H247.248V487ZM249.85 474.836L250.827 475.045L250.83 475.035L250.832 475.024L249.85 474.836ZM244.523 470.898L243.953 470.077L243.949 470.08L244.523 470.898ZM241.904 473.922L241.037 473.423L241.036 473.426L241.904 473.922ZM240.199 478.686L241.177 478.894L241.178 478.889L240.199 478.686ZM238.424 487V488H239.233L239.402 487.209L238.424 487ZM235.471 487L234.492 486.793L234.236 488H235.471V487ZM241.271 459.648V458.648H240.461L240.293 459.441L241.271 459.648ZM244.225 459.648L245.201 459.863L245.468 458.648H244.225V459.648ZM243.609 462.443L242.633 462.228L242.63 462.24L243.609 462.443ZM243.012 465.203L242.036 464.984L242.034 464.993L243.012 465.203ZM242.344 468.121L241.372 467.886L241.369 467.897L242.344 468.121ZM241.518 471.443L240.551 471.187L240.218 472.443H241.518V471.443ZM241.711 471.443V472.443H242.205L242.505 472.051L241.711 471.443ZM244.963 468.35L244.464 467.483L244.46 467.485L244.963 468.35ZM251.889 468.684L251.177 469.386L251.182 469.391L251.889 468.684ZM252.75 475.188L251.774 474.972L251.772 474.98L251.77 474.989L252.75 475.188ZM250.201 487V488H251.004L251.178 487.216L250.201 487ZM248.226 487.209L250.827 475.045L248.872 474.627L246.27 486.791L248.226 487.209ZM250.832 475.024C251.043 473.92 251.166 473.047 251.166 472.463H249.166C249.166 472.84 249.078 473.548 248.867 474.648L250.832 475.024ZM251.166 472.463C251.166 471.443 250.912 470.495 250.23 469.807C249.545 469.118 248.599 468.861 247.582 468.861V470.861C248.287 470.861 248.633 471.038 248.811 471.216C248.989 471.396 249.166 471.748 249.166 472.463H251.166ZM247.582 468.861C246.304 468.861 245.089 469.289 243.953 470.077L245.094 471.72C245.95 471.125 246.775 470.861 247.582 470.861V468.861ZM243.949 470.08C242.817 470.875 241.853 472.005 241.037 473.423L242.771 474.42C243.479 473.19 244.261 472.305 245.098 471.717L243.949 470.08ZM241.036 473.426C240.222 474.85 239.623 476.542 239.22 478.482L241.178 478.889C241.549 477.103 242.086 475.619 242.773 474.418L241.036 473.426ZM239.221 478.477L237.446 486.791L239.402 487.209L241.177 478.894L239.221 478.477ZM238.424 486H235.471V488H238.424V486ZM236.449 487.207L242.25 459.856L240.293 459.441L234.492 486.793L236.449 487.207ZM241.271 460.648H244.225V458.648H241.271V460.648ZM243.248 459.434C243.037 460.395 242.832 461.326 242.633 462.228L244.586 462.659C244.785 461.756 244.99 460.824 245.201 459.863L243.248 459.434ZM242.63 462.24C242.444 463.137 242.246 464.051 242.036 464.984L243.987 465.423C244.199 464.48 244.4 463.555 244.588 462.647L242.63 462.24ZM242.034 464.993C241.837 465.91 241.616 466.874 241.372 467.886L243.316 468.356C243.564 467.329 243.788 466.348 243.989 465.413L242.034 464.993ZM241.369 467.897C241.138 468.904 240.865 470.001 240.551 471.187L242.484 471.699C242.803 470.495 243.081 469.377 243.318 468.345L241.369 467.897ZM241.518 472.443H241.711V470.443H241.518V472.443ZM242.505 472.051C243.562 470.668 244.553 469.746 245.466 469.214L244.46 467.485C243.24 468.196 242.063 469.335 240.916 470.836L242.505 472.051ZM245.462 469.216C246.398 468.677 247.352 468.418 248.338 468.418V466.418C246.98 466.418 245.684 466.78 244.464 467.483L245.462 469.216ZM248.338 468.418C249.688 468.418 250.584 468.784 251.177 469.386L252.601 467.981C251.53 466.895 250.058 466.418 248.338 466.418V468.418ZM251.182 469.391C251.787 469.996 252.154 470.906 252.154 472.27H254.154C254.154 470.539 253.678 469.059 252.596 467.976L251.182 469.391ZM252.154 472.27C252.154 472.89 252.037 473.781 251.774 474.972L253.726 475.403C254.002 474.157 254.154 473.102 254.154 472.27H252.154ZM251.77 474.989C251.315 477.241 250.467 481.17 249.225 486.784L251.178 487.216C252.42 481.603 253.271 477.657 253.73 475.386L251.77 474.989ZM250.201 486H247.248V488H250.201V486ZM271.787 469.475L271.071 470.172L271.074 470.175L271.787 469.475ZM258.217 473.588L259.133 473.988L259.134 473.986L258.217 473.588ZM261.68 469.07L262.263 469.883L262.267 469.88L261.68 469.07ZM269.555 471.232L268.797 471.885L268.802 471.891L268.807 471.896L269.555 471.232ZM263.139 471.268L262.491 470.506L262.486 470.51L263.139 471.268ZM260.783 474.889L259.843 474.547L259.842 474.551L260.783 474.889ZM261.064 483.59L260.312 484.248L260.317 484.254L260.322 484.259L261.064 483.59ZM269.836 479.916L268.892 479.587L268.89 479.591L269.836 479.916ZM266.514 468.488C268.53 468.488 270.007 469.08 271.071 470.172L272.504 468.777C270.989 467.221 268.951 466.488 266.514 466.488V468.488ZM271.074 470.175C272.135 471.256 272.721 472.789 272.721 474.906H274.721C274.721 472.406 274.017 470.318 272.501 468.774L271.074 470.175ZM272.721 474.906C272.721 476.978 272.325 478.923 271.537 480.751L273.373 481.542C274.273 479.456 274.721 477.241 274.721 474.906H272.721ZM271.537 480.751C270.75 482.576 269.707 483.935 268.433 484.878L269.622 486.486C271.23 485.296 272.473 483.631 273.373 481.542L271.537 480.751ZM268.433 484.878C267.166 485.815 265.746 486.281 264.141 486.281V488.281C266.168 488.281 268.006 487.681 269.622 486.486L268.433 484.878ZM264.141 486.281C262.097 486.281 260.618 485.687 259.569 484.601L258.13 485.989C259.636 487.551 261.684 488.281 264.141 488.281V486.281ZM259.569 484.601C258.514 483.506 257.934 481.969 257.934 479.863H255.934C255.934 482.352 256.631 484.435 258.13 485.989L259.569 484.601ZM257.934 479.863C257.934 477.769 258.335 475.814 259.133 473.988L257.301 473.187C256.387 475.276 255.934 477.505 255.934 479.863H257.934ZM259.134 473.986C259.932 472.15 260.983 470.801 262.263 469.883L261.097 468.258C259.47 469.425 258.213 471.088 257.3 473.189L259.134 473.986ZM262.267 469.88C263.552 468.947 264.958 468.488 266.514 468.488V466.488C264.53 466.488 262.713 467.084 261.092 468.261L262.267 469.88ZM271.662 474.502C271.662 472.964 271.236 471.621 270.303 470.569L268.807 471.896C269.35 472.508 269.662 473.345 269.662 474.502H271.662ZM270.312 470.58C269.371 469.486 268.088 468.967 266.584 468.967V470.967C267.588 470.967 268.286 471.291 268.797 471.885L270.312 470.58ZM266.584 468.967C265.057 468.967 263.682 469.493 262.491 470.506L263.787 472.029C264.635 471.308 265.556 470.967 266.584 470.967V468.967ZM262.486 470.51C261.321 471.512 260.451 472.877 259.843 474.547L261.723 475.23C262.241 473.807 262.941 472.757 263.791 472.026L262.486 470.51ZM259.842 474.551C259.247 476.21 258.957 478.037 258.957 480.021H260.957C260.957 478.232 261.218 476.638 261.724 475.226L259.842 474.551ZM258.957 480.021C258.957 481.709 259.364 483.165 260.312 484.248L261.817 482.931C261.289 482.328 260.957 481.404 260.957 480.021H258.957ZM260.322 484.259C261.306 485.351 262.678 485.838 264.281 485.838V483.838C263.095 483.838 262.323 483.492 261.807 482.92L260.322 484.259ZM264.281 485.838C265.759 485.838 267.086 485.311 268.229 484.306L266.908 482.804C266.105 483.51 265.241 483.838 264.281 483.838V485.838ZM268.229 484.306C269.364 483.307 270.202 481.93 270.782 480.241L268.89 479.591C268.392 481.043 267.718 482.091 266.908 482.804L268.229 484.306ZM270.78 480.245C271.375 478.538 271.662 476.618 271.662 474.502H269.662C269.662 476.44 269.399 478.13 268.892 479.587L270.78 480.245ZM280.031 484.012L280.945 483.606L280.681 483.012H280.031V484.012ZM279.855 484.012V483.012H278.955L278.861 483.907L279.855 484.012ZM279.785 484.68L280.778 484.799L280.779 484.792L280.78 484.784L279.785 484.68ZM279.592 485.91L278.607 485.735L278.605 485.746L278.604 485.756L279.592 485.91ZM277.588 495.648V496.648H278.4L278.567 495.854L277.588 495.648ZM274.67 495.648L273.692 495.441L273.436 496.648H274.67V495.648ZM280.576 467.734V466.734H279.766L279.598 467.527L280.576 467.734ZM283.02 467.734L284.012 467.858L284.152 466.734H283.02V467.734ZM282.562 471.408L281.57 471.285L281.43 472.408H282.562V471.408ZM282.703 471.408V472.408H283.188L283.488 472.027L282.703 471.408ZM293.039 469.141L292.261 469.768L292.264 469.772L293.039 469.141ZM289.857 485.629L290.484 486.409L290.488 486.405L289.857 485.629ZM284.83 471.531L284.141 470.806L284.138 470.81L284.83 471.531ZM282.053 475.732L281.127 475.353L281.125 475.359L282.053 475.732ZM282 483.889L281.269 484.571L281.275 484.577L281.281 484.583L282 483.889ZM288.064 483.484L287.379 482.756L287.375 482.76L288.064 483.484ZM290.49 479.441L291.434 479.771L291.435 479.769L290.49 479.441ZM285.006 486.352C284.051 486.352 283.256 486.109 282.583 485.648L281.452 487.298C282.49 488.009 283.688 488.352 285.006 488.352V486.352ZM282.583 485.648C281.897 485.178 281.347 484.511 280.945 483.606L279.117 484.418C279.653 485.622 280.427 486.596 281.452 487.298L282.583 485.648ZM280.031 483.012H279.855V485.012H280.031V483.012ZM278.861 483.907L278.791 484.575L280.78 484.784L280.85 484.116L278.861 483.907ZM278.792 484.561C278.76 484.826 278.7 485.214 278.607 485.735L280.576 486.085C280.671 485.552 280.74 485.12 280.778 484.799L278.792 484.561ZM278.604 485.756C278.527 486.249 277.868 489.454 276.609 495.443L278.567 495.854C279.815 489.913 280.493 486.626 280.58 486.064L278.604 485.756ZM277.588 494.648H274.67V496.648H277.588V494.648ZM275.648 495.855L281.555 467.941L279.598 467.527L273.692 495.441L275.648 495.855ZM280.576 468.734H283.02V466.734H280.576V468.734ZM282.027 467.611L281.57 471.285L283.555 471.532L284.012 467.858L282.027 467.611ZM282.562 472.408H282.703V470.408H282.562V472.408ZM283.488 472.027C285.493 469.485 287.415 468.418 289.242 468.418V466.418C286.546 466.418 284.108 468.011 281.918 470.789L283.488 472.027ZM289.242 468.418C290.576 468.418 291.543 468.878 292.261 469.768L293.818 468.513C292.684 467.106 291.12 466.418 289.242 466.418V468.418ZM292.264 469.772C292.995 470.67 293.428 472.015 293.428 473.939H295.428C295.428 471.739 294.935 469.885 293.814 468.509L292.264 469.772ZM293.428 473.939C293.428 476.314 293.042 478.468 292.283 480.414L294.147 481.141C295.005 478.938 295.428 476.534 295.428 473.939H293.428ZM292.283 480.414C291.524 482.36 290.497 483.822 289.227 484.852L290.488 486.405C292.077 485.115 293.288 483.343 294.147 481.141L292.283 480.414ZM289.231 484.849C287.976 485.858 286.579 486.352 285.006 486.352V488.352C287.042 488.352 288.88 487.697 290.484 486.409L289.231 484.849ZM288.275 468.861C286.801 468.861 285.418 469.593 284.141 470.806L285.519 472.256C286.586 471.243 287.5 470.861 288.275 470.861V468.861ZM284.138 470.81C282.864 472.032 281.865 473.554 281.127 475.353L282.978 476.112C283.624 474.536 284.476 473.257 285.522 472.253L284.138 470.81ZM281.125 475.359C280.399 477.162 280.033 479.017 280.033 480.918H282.033C282.033 479.28 282.347 477.678 282.98 476.106L281.125 475.359ZM280.033 480.918C280.033 482.367 280.397 483.635 281.269 484.571L282.731 483.207C282.314 482.759 282.033 482.047 282.033 480.918H280.033ZM281.281 484.583C282.178 485.512 283.414 485.908 284.83 485.908V483.908C283.785 483.908 283.135 483.624 282.719 483.194L281.281 484.583ZM284.83 485.908C286.294 485.908 287.609 485.3 288.754 484.208L287.375 482.76C286.528 483.568 285.687 483.908 284.83 483.908V485.908ZM288.75 484.212C289.907 483.122 290.789 481.62 291.434 479.771L289.546 479.112C288.973 480.755 288.237 481.948 287.379 482.756L288.75 484.212ZM291.435 479.769C292.083 477.9 292.404 475.925 292.404 473.852H290.404C290.404 475.715 290.116 477.467 289.545 479.114L291.435 479.769ZM292.404 473.852C292.404 472.418 292.128 471.159 291.409 470.242C290.654 469.279 289.546 468.861 288.275 468.861V470.861C289.091 470.861 289.547 471.109 289.835 471.476C290.159 471.889 290.404 472.625 290.404 473.852H292.404ZM319.67 468.262L319.1 469.083L319.107 469.088L319.67 468.262ZM321.639 470.758L320.72 471.153L320.98 471.758H321.639V470.758ZM321.832 470.758V471.758H322.516L322.764 471.121L321.832 470.758ZM323.01 467.734V466.734H322.326L322.078 467.371L323.01 467.734ZM325.242 467.734L326.22 467.942L326.477 466.734H325.242V467.734ZM321.146 487V488H321.956L322.125 487.208L321.146 487ZM318.809 487L317.816 486.877L317.676 488H318.809V487ZM319.266 483.326L320.258 483.45L320.398 482.326H319.266V483.326ZM319.125 483.326V482.326H318.637L318.337 482.71L319.125 483.326ZM316.84 483.291L317.532 484.013L317.536 484.009L316.84 483.291ZM319.582 479.055L320.509 479.43L320.51 479.428L319.582 479.055ZM313.658 471.373L312.967 470.65L312.963 470.654L313.658 471.373ZM311.127 483.924L310.355 484.56L310.361 484.567L311.127 483.924ZM316.787 468.383C317.672 468.383 318.432 468.619 319.1 469.083L320.24 467.44C319.221 466.732 318.058 466.383 316.787 466.383V468.383ZM319.107 469.088C319.77 469.539 320.314 470.209 320.72 471.153L322.557 470.363C322.026 469.127 321.258 468.133 320.233 467.435L319.107 469.088ZM321.639 471.758H321.832V469.758H321.639V471.758ZM322.764 471.121L323.942 468.097L322.078 467.371L320.9 470.395L322.764 471.121ZM323.01 468.734H325.242V466.734H323.01V468.734ZM324.264 467.526L320.168 486.792L322.125 487.208L326.22 467.942L324.264 467.526ZM321.146 486H318.809V488H321.146V486ZM319.801 487.123L320.258 483.45L318.273 483.203L317.816 486.877L319.801 487.123ZM319.266 482.326H319.125V484.326H319.266V482.326ZM318.337 482.71C316.337 485.269 314.387 486.352 312.498 486.352V488.352C315.25 488.352 317.718 486.75 319.913 483.942L318.337 482.71ZM312.498 486.352C311.139 486.352 310.164 485.885 309.448 484.988L307.884 486.235C309.02 487.658 310.599 488.352 312.498 488.352V486.352ZM309.448 484.988C308.706 484.059 308.277 482.717 308.277 480.848H306.277C306.277 483.009 306.774 484.844 307.884 486.235L309.448 484.988ZM308.277 480.848C308.277 478.526 308.673 476.391 309.454 474.433L307.597 473.692C306.714 475.906 306.277 478.294 306.277 480.848H308.277ZM309.454 474.433C310.235 472.476 311.291 470.993 312.599 469.936L311.342 468.38C309.72 469.691 308.48 471.477 307.597 473.692L309.454 474.433ZM312.599 469.936C313.901 468.884 315.288 468.383 316.787 468.383V466.383C314.794 466.383 312.97 467.065 311.342 468.38L312.599 469.936ZM313.447 485.908C314.925 485.908 316.291 485.202 317.532 484.013L316.148 482.569C315.139 483.536 314.243 483.908 313.447 483.908V485.908ZM317.536 484.009C318.778 482.806 319.763 481.269 320.509 479.43L318.655 478.679C317.994 480.309 317.152 481.597 316.144 482.573L317.536 484.009ZM320.51 479.428C321.257 477.573 321.637 475.7 321.637 473.816H319.637C319.637 475.425 319.313 477.044 318.654 478.681L320.51 479.428ZM321.637 473.816C321.637 472.423 321.253 471.199 320.389 470.257L318.916 471.61C319.364 472.098 319.637 472.796 319.637 473.816H321.637ZM320.389 470.257C319.523 469.314 318.384 468.861 317.068 468.861V470.861C317.886 470.861 318.469 471.123 318.916 471.61L320.389 470.257ZM317.068 468.861C315.543 468.861 314.169 469.502 312.967 470.65L314.349 472.096C315.257 471.229 316.156 470.861 317.068 470.861V468.861ZM312.963 470.654C311.782 471.795 310.889 473.307 310.253 475.141L312.142 475.797C312.701 474.185 313.448 472.967 314.353 472.092L312.963 470.654ZM310.253 475.141C309.617 476.974 309.301 478.902 309.301 480.918H311.301C311.301 479.114 311.583 477.409 312.142 475.797L310.253 475.141ZM309.301 480.918C309.301 482.366 309.595 483.638 310.355 484.56L311.898 483.288C311.557 482.873 311.301 482.142 311.301 480.918H309.301ZM310.361 484.567C311.134 485.487 312.209 485.908 313.447 485.908V483.908C312.693 483.908 312.222 483.673 311.893 483.281L310.361 484.567ZM338.725 487L337.747 486.791L337.488 488H338.725V487ZM341.326 474.836L342.304 475.045L342.306 475.035L342.308 475.025L341.326 474.836ZM341.045 470.529L340.309 471.207L340.319 471.217L341.045 470.529ZM336 470.916L335.423 470.099L335.419 470.102L336 470.916ZM333.381 473.922L332.518 473.417L332.515 473.422L333.381 473.922ZM331.676 478.65L332.654 478.858L332.655 478.855L331.676 478.65ZM329.9 487V488H330.71L330.879 487.208L329.9 487ZM326.947 487L325.969 486.791L325.711 488H326.947V487ZM331.061 467.734V466.734H330.252L330.083 467.526L331.061 467.734ZM333.504 467.734L334.498 467.842L334.618 466.734H333.504V467.734ZM333.117 471.303L332.123 471.195L332.003 472.303H333.117V471.303ZM333.293 471.303V472.303H333.779L334.079 471.921L333.293 471.303ZM336.545 468.279L337.035 469.151L337.038 469.149L336.545 468.279ZM343.33 468.613L342.638 469.335L342.648 469.345L343.33 468.613ZM344.227 475.188L343.252 474.965L343.25 474.972L343.248 474.979L344.227 475.188ZM341.713 487V488H342.522L342.691 487.208L341.713 487ZM339.702 487.209L342.304 475.045L340.348 474.627L337.747 486.791L339.702 487.209ZM342.308 475.025C342.541 473.813 342.678 472.881 342.678 472.305H340.678C340.678 472.665 340.58 473.421 340.344 474.647L342.308 475.025ZM342.678 472.305C342.678 471.366 342.403 470.509 341.771 469.842L340.319 471.217C340.53 471.44 340.678 471.767 340.678 472.305H342.678ZM341.78 469.852C341.102 469.116 340.11 468.861 339.059 468.861V470.861C339.835 470.861 340.167 471.052 340.309 471.207L341.78 469.852ZM339.059 468.861C337.776 468.861 336.559 469.298 335.423 470.099L336.577 471.733C337.433 471.128 338.255 470.861 339.059 470.861V468.861ZM335.419 470.102C334.295 470.905 333.334 472.023 332.518 473.417L334.244 474.427C334.951 473.219 335.736 472.334 336.581 471.73L335.419 470.102ZM332.515 473.422C331.7 474.835 331.1 476.516 330.697 478.446L332.655 478.855C333.025 477.081 333.562 475.61 334.247 474.421L332.515 473.422ZM330.698 478.442L328.922 486.792L330.879 487.208L332.654 478.858L330.698 478.442ZM329.9 486H326.947V488H329.9V486ZM327.925 487.209L332.039 467.943L330.083 467.526L325.969 486.791L327.925 487.209ZM331.061 468.734H333.504V466.734H331.061V468.734ZM332.51 467.627L332.123 471.195L334.111 471.41L334.498 467.842L332.51 467.627ZM333.117 472.303H333.293V470.303H333.117V472.303ZM334.079 471.921C335.161 470.546 336.15 469.648 337.035 469.151L336.055 467.407C334.854 468.082 333.675 469.2 332.507 470.684L334.079 471.921ZM337.038 469.149C337.954 468.63 338.876 468.383 339.814 468.383V466.383C338.503 466.383 337.245 466.733 336.052 467.409L337.038 469.149ZM339.814 468.383C341.114 468.383 342.013 468.736 342.638 469.335L344.022 467.891C342.936 466.85 341.492 466.383 339.814 466.383V468.383ZM342.648 469.345C343.266 469.921 343.631 470.766 343.631 472.023H345.631C345.631 470.351 345.128 468.923 344.012 467.882L342.648 469.345ZM343.631 472.023C343.631 472.856 343.509 473.834 343.252 474.965L345.202 475.41C345.483 474.174 345.631 473.043 345.631 472.023H343.631ZM343.248 474.979L340.735 486.792L342.691 487.208L345.205 475.396L343.248 474.979ZM341.713 486H338.725V488H341.713V486ZM362.859 470.758L361.95 471.174L362.217 471.758H362.859V470.758ZM363.035 470.758V471.758H363.931L364.029 470.867L363.035 470.758ZM363.826 465.941L364.8 466.17L364.801 466.162L364.803 466.154L363.826 465.941ZM365.197 459.648V458.648H364.392L364.22 459.436L365.197 459.648ZM368.115 459.648L369.093 459.856L369.35 458.648H368.115V459.648ZM362.314 487V488H363.125L363.293 487.207L362.314 487ZM359.871 487L358.877 486.895L358.76 488H359.871V487ZM360.258 483.326L361.252 483.431L361.369 482.326H360.258V483.326ZM360.117 483.326V482.326H359.64L359.339 482.698L360.117 483.326ZM353.086 469.123L352.467 468.338L352.464 468.34L353.086 469.123ZM357.99 483.273L358.671 484.006L358.675 484.002L357.99 483.273ZM360.768 479.072L359.84 478.698L359.839 478.701L360.768 479.072ZM354.791 471.32L355.481 472.044L355.481 472.044L354.791 471.32ZM352.348 475.398L351.405 475.065L351.404 475.069L352.348 475.398ZM357.92 468.418C358.887 468.418 359.665 468.652 360.3 469.081C360.939 469.514 361.499 470.189 361.95 471.174L363.769 470.341C363.2 469.1 362.427 468.105 361.42 467.425C360.408 466.741 359.227 466.418 357.92 466.418V468.418ZM362.859 471.758H363.035V469.758H362.859V471.758ZM364.029 470.867C364.225 469.08 364.483 467.516 364.8 466.17L362.853 465.712C362.513 467.155 362.244 468.802 362.041 470.649L364.029 470.867ZM364.803 466.154L366.174 459.861L364.22 459.436L362.849 465.729L364.803 466.154ZM365.197 460.648H368.115V458.648H365.197V460.648ZM367.137 459.441L361.336 486.793L363.293 487.207L369.093 459.856L367.137 459.441ZM362.314 486H359.871V488H362.314V486ZM360.866 487.105L361.252 483.431L359.263 483.221L358.877 486.895L360.866 487.105ZM360.258 482.326H360.117V484.326H360.258V482.326ZM359.339 482.698C358.193 484.117 357.173 485.053 356.286 485.577L357.304 487.298C358.479 486.604 359.674 485.465 360.895 483.955L359.339 482.698ZM356.286 485.577C355.395 486.103 354.503 486.352 353.596 486.352V488.352C354.892 488.352 356.132 487.991 357.304 487.298L356.286 485.577ZM353.596 486.352C352.233 486.352 351.265 485.888 350.564 485.006L348.999 486.252C350.125 487.667 351.7 488.352 353.596 488.352V486.352ZM350.564 485.006C349.836 484.092 349.41 482.747 349.41 480.848H347.41C347.41 483.026 347.898 484.869 348.999 486.252L350.564 485.006ZM349.41 480.848C349.41 478.454 349.812 476.286 350.603 474.332L348.749 473.582C347.852 475.8 347.41 478.226 347.41 480.848H349.41ZM350.603 474.332C351.397 472.369 352.442 470.913 353.708 469.906L352.464 468.34C350.871 469.607 349.642 471.373 348.749 473.582L350.603 474.332ZM353.705 469.908C354.976 468.906 356.371 468.418 357.92 468.418V466.418C355.907 466.418 354.079 467.067 352.467 468.338L353.705 469.908ZM354.58 485.908C356.028 485.908 357.397 485.19 358.671 484.006L357.309 482.541C356.239 483.536 355.335 483.908 354.58 483.908V485.908ZM358.675 484.002C359.967 482.788 360.97 481.26 361.696 479.444L359.839 478.701C359.206 480.283 358.357 481.556 357.305 482.545L358.675 484.002ZM361.695 479.447C362.432 477.622 362.805 475.755 362.805 473.852H360.805C360.805 475.487 360.486 477.101 359.84 478.698L361.695 479.447ZM362.805 473.852C362.805 472.4 362.451 471.127 361.587 470.199L360.124 471.562C360.525 471.994 360.805 472.702 360.805 473.852H362.805ZM361.587 470.199C360.713 469.26 359.493 468.861 358.096 468.861V470.861C359.113 470.861 359.732 471.142 360.124 471.562L361.587 470.199ZM358.096 468.861C356.607 468.861 355.269 469.483 354.101 470.597L355.481 472.044C356.353 471.213 357.217 470.861 358.096 470.861V468.861ZM354.101 470.597C352.947 471.696 352.061 473.207 351.405 475.065L353.291 475.732C353.876 474.074 354.619 472.866 355.481 472.044L354.101 470.597ZM351.404 475.069C350.755 476.926 350.434 478.877 350.434 480.918H352.434C352.434 479.091 352.721 477.363 353.292 475.728L351.404 475.069ZM350.434 480.918C350.434 482.352 350.712 483.613 351.435 484.53C352.194 485.492 353.306 485.908 354.58 485.908V483.908C353.757 483.908 353.295 483.659 353.005 483.291C352.68 482.878 352.434 482.144 352.434 480.918H350.434ZM383.391 486.455L382.818 487.275L382.823 487.278L383.391 486.455ZM381.457 484.012L382.379 483.624L382.121 483.012H381.457V484.012ZM381.281 484.012V483.012H380.612L380.357 483.631L381.281 484.012ZM380.051 487V488H380.72L380.975 487.381L380.051 487ZM377.854 487L376.875 486.793L376.619 488H377.854V487ZM383.654 459.648V458.648H382.844L382.676 459.441L383.654 459.648ZM386.607 459.648L387.586 459.855L387.84 458.648H386.607V459.648ZM385.219 466.17L384.241 465.958L384.24 465.964L385.219 466.17ZM383.9 471.443L382.937 471.175L382.583 472.443H383.9V471.443ZM384.059 471.443V472.443H384.544L384.844 472.062L384.059 471.443ZM387.275 468.402L387.797 469.256L387.799 469.254L387.275 468.402ZM394.605 480.742L393.673 480.381L393.672 480.384L394.605 480.742ZM391.248 485.611L391.878 486.388L391.879 486.387L391.248 485.611ZM386.221 471.531L385.532 470.806L385.528 470.81L386.221 471.531ZM383.443 475.732L382.518 475.353L382.516 475.359L383.443 475.732ZM383.391 483.889L382.659 484.571L382.665 484.577L382.671 484.583L383.391 483.889ZM389.455 483.484L388.769 482.756L388.765 482.76L389.455 483.484ZM391.881 479.441L392.825 479.771L392.826 479.769L391.881 479.441ZM386.396 486.352C385.446 486.352 384.645 486.105 383.958 485.632L382.823 487.278C383.871 488 385.074 488.352 386.396 488.352V486.352ZM383.963 485.635C383.274 485.154 382.745 484.494 382.379 483.624L380.535 484.399C381.037 485.592 381.796 486.561 382.818 487.275L383.963 485.635ZM381.457 483.012H381.281V485.012H381.457V483.012ZM380.357 483.631L379.126 486.619L380.975 487.381L382.206 484.392L380.357 483.631ZM380.051 486H377.854V488H380.051V486ZM378.832 487.207L384.633 459.856L382.676 459.441L376.875 486.793L378.832 487.207ZM383.654 460.648H386.607V458.648H383.654V460.648ZM385.629 459.442C385.031 462.278 384.569 464.449 384.242 465.958L386.196 466.382C386.525 464.867 386.988 462.691 387.586 459.855L385.629 459.442ZM384.24 465.964C383.93 467.437 383.496 469.173 382.937 471.175L384.864 471.712C385.43 469.683 385.875 467.903 386.197 466.376L384.24 465.964ZM383.9 472.443H384.059V470.443H383.9V472.443ZM384.844 472.062C385.889 470.736 386.876 469.818 387.797 469.256L386.754 467.549C385.565 468.276 384.408 469.385 383.273 470.824L384.844 472.062ZM387.799 469.254C388.727 468.683 389.643 468.418 390.562 468.418V466.418C389.232 466.418 387.957 466.809 386.751 467.551L387.799 469.254ZM390.562 468.418C391.95 468.418 392.935 468.889 393.648 469.782L395.211 468.534C394.073 467.108 392.48 466.418 390.562 466.418V468.418ZM393.648 469.782C394.389 470.71 394.818 472.056 394.818 473.939H396.818C396.818 471.768 396.322 469.927 395.211 468.534L393.648 469.782ZM394.818 473.939C394.818 476.277 394.433 478.421 393.673 480.381L395.538 481.104C396.395 478.892 396.818 476.501 396.818 473.939H394.818ZM393.672 480.384C392.925 482.327 391.899 483.794 390.617 484.835L391.879 486.387C393.48 485.085 394.692 483.306 395.539 481.101L393.672 480.384ZM390.618 484.835C389.363 485.854 387.967 486.352 386.396 486.352V488.352C388.436 488.352 390.274 487.689 391.878 486.388L390.618 484.835ZM389.666 468.861C388.191 468.861 386.809 469.593 385.532 470.806L386.909 472.256C387.976 471.243 388.891 470.861 389.666 470.861V468.861ZM385.528 470.81C384.255 472.032 383.255 473.554 382.518 475.353L384.369 476.112C385.014 474.536 385.866 473.257 386.913 472.253L385.528 470.81ZM382.516 475.359C381.79 477.162 381.424 479.017 381.424 480.918H383.424C383.424 479.28 383.738 477.678 384.371 476.106L382.516 475.359ZM381.424 480.918C381.424 482.367 381.787 483.635 382.659 484.571L384.122 483.207C383.705 482.759 383.424 482.047 383.424 480.918H381.424ZM382.671 484.583C383.568 485.512 384.805 485.908 386.221 485.908V483.908C385.176 483.908 384.526 483.624 384.11 483.194L382.671 484.583ZM386.221 485.908C387.685 485.908 389 485.3 390.145 484.208L388.765 482.76C387.918 483.568 387.077 483.908 386.221 483.908V485.908ZM390.141 484.212C391.298 483.122 392.18 481.62 392.825 479.771L390.937 479.112C390.363 480.755 389.628 481.948 388.769 482.756L390.141 484.212ZM392.826 479.769C393.474 477.9 393.795 475.925 393.795 473.852H391.795C391.795 475.715 391.507 477.467 390.936 479.114L392.826 479.769ZM393.795 473.852C393.795 472.418 393.519 471.159 392.8 470.242C392.044 469.279 390.937 468.861 389.666 468.861V470.861C390.481 470.861 390.938 471.109 391.226 471.476C391.55 471.889 391.795 472.625 391.795 473.852H393.795ZM400.617 473.799L399.7 473.401L399.699 473.404L400.617 473.799ZM412.904 468.561L412.248 469.315L412.254 469.32L412.904 468.561ZM411.34 476.787L411.863 477.639L411.867 477.637L411.34 476.787ZM402.41 478.58V477.58H401.459L401.411 478.53L402.41 478.58ZM402.34 479.986L401.341 479.936L401.34 479.961V479.986H402.34ZM403.412 483.59L402.64 484.226L402.645 484.232L402.65 484.237L403.412 483.59ZM409.037 484.557L408.778 483.591L408.774 483.592L409.037 484.557ZM411.955 483.396H412.955V481.8L411.519 482.497L411.955 483.396ZM411.955 485.963L412.379 486.869L412.955 486.599V485.963H411.955ZM409.037 487.035L408.807 486.062L408.795 486.065L409.037 487.035ZM405.275 471.549L404.557 470.853L404.553 470.857L405.275 471.549ZM402.85 476.137L401.889 475.86L401.522 477.137H402.85V476.137ZM409.195 475.1L409.634 475.998L409.637 475.997L409.195 475.1ZM410.689 470.512L409.992 471.229L410.002 471.238L410.689 470.512ZM406.242 486.352C404.295 486.352 402.885 485.782 401.882 484.742L400.442 486.129C401.9 487.643 403.877 488.352 406.242 488.352V486.352ZM401.882 484.742C400.877 483.698 400.316 482.204 400.316 480.127H398.316C398.316 482.573 398.986 484.618 400.442 486.129L401.882 484.742ZM400.316 480.127C400.316 478.059 400.723 476.084 401.536 474.194L399.699 473.404C398.777 475.545 398.316 477.788 398.316 480.127H400.316ZM401.535 474.197C402.361 472.291 403.428 470.861 404.713 469.859L403.482 468.282C401.884 469.529 400.631 471.252 399.7 473.401L401.535 474.197ZM404.713 469.859C405.989 468.863 407.363 468.383 408.861 468.383V466.383C406.891 466.383 405.089 467.028 403.482 468.282L404.713 469.859ZM408.861 468.383C410.53 468.383 411.6 468.751 412.248 469.315L413.561 467.806C412.404 466.8 410.779 466.383 408.861 466.383V468.383ZM412.254 469.32C412.895 469.87 413.258 470.654 413.258 471.812H415.258C415.258 470.182 414.718 468.798 413.555 467.801L412.254 469.32ZM413.258 471.812C413.258 473.542 412.494 474.894 410.813 475.937L411.867 477.637C414.076 476.266 415.258 474.302 415.258 471.812H413.258ZM410.816 475.935C409.095 476.993 406.525 477.58 402.99 477.58V479.58C406.698 479.58 409.694 478.972 411.863 477.639L410.816 475.935ZM402.99 477.58H402.41V479.58H402.99V477.58ZM401.411 478.53L401.341 479.936L403.339 480.036L403.409 478.63L401.411 478.53ZM401.34 479.986C401.34 481.669 401.732 483.124 402.64 484.226L404.184 482.954C403.663 482.322 403.34 481.374 403.34 479.986H401.34ZM402.65 484.237C403.627 485.387 405.072 485.873 406.77 485.873V483.873C405.444 483.873 404.651 483.503 404.174 482.942L402.65 484.237ZM406.77 485.873C407.604 485.873 408.448 485.754 409.3 485.521L408.774 483.592C408.079 483.781 407.412 483.873 406.77 483.873V485.873ZM409.297 485.522C410.167 485.288 411.203 484.872 412.391 484.296L411.519 482.497C410.387 483.046 409.477 483.403 408.778 483.591L409.297 485.522ZM410.955 483.396V485.963H412.955V483.396H410.955ZM411.531 485.057C410.469 485.554 409.563 485.883 408.807 486.062L409.267 488.008C410.198 487.789 411.238 487.403 412.379 486.869L411.531 485.057ZM408.795 486.065C408.042 486.253 407.194 486.352 406.242 486.352V488.352C407.33 488.352 408.344 488.239 409.28 488.005L408.795 486.065ZM408.686 468.896C407.139 468.896 405.758 469.613 404.557 470.853L405.994 472.244C406.926 471.282 407.818 470.896 408.686 470.896V468.896ZM404.553 470.857C403.355 472.108 402.481 473.798 401.889 475.86L403.811 476.413C404.343 474.562 405.086 473.192 405.998 472.24L404.553 470.857ZM402.85 477.137H403.061V475.137H402.85V477.137ZM403.061 477.137C405.793 477.137 408.016 476.787 409.634 475.998L408.757 474.201C407.539 474.795 405.672 475.137 403.061 475.137V477.137ZM409.637 475.997C410.46 475.592 411.143 475.065 411.621 474.388C412.106 473.701 412.34 472.912 412.34 472.059H410.34C410.34 472.529 410.217 472.909 409.986 473.236C409.749 473.572 409.36 473.904 408.754 474.202L409.637 475.997ZM412.34 472.059C412.34 471.175 412.019 470.393 411.377 469.785L410.002 471.238C410.227 471.451 410.34 471.7 410.34 472.059H412.34ZM411.387 469.795C410.697 469.125 409.72 468.896 408.686 468.896V470.896C409.479 470.896 409.838 471.078 409.992 471.229L411.387 469.795ZM437.514 487L436.536 486.791L436.277 488H437.514V487ZM440.115 474.836L441.093 475.045L441.095 475.035L441.097 475.024L440.115 474.836ZM434.789 470.898L434.219 470.077L434.214 470.08L434.789 470.898ZM432.17 473.922L431.303 473.423L431.302 473.426L432.17 473.922ZM430.465 478.686L431.443 478.894L431.444 478.889L430.465 478.686ZM428.689 487V488H429.498L429.667 487.209L428.689 487ZM425.736 487L424.758 486.793L424.502 488H425.736V487ZM431.537 459.648V458.648H430.727L430.559 459.441L431.537 459.648ZM434.49 459.648L435.467 459.863L435.734 458.648H434.49V459.648ZM433.875 462.443L432.898 462.228L432.896 462.24L433.875 462.443ZM433.277 465.203L432.302 464.984L432.3 464.993L433.277 465.203ZM432.609 468.121L431.637 467.886L431.635 467.897L432.609 468.121ZM431.783 471.443L430.816 471.187L430.484 472.443H431.783V471.443ZM431.977 471.443V472.443H432.471L432.771 472.051L431.977 471.443ZM435.229 468.35L434.729 467.483L434.725 467.485L435.229 468.35ZM442.154 468.684L441.442 469.386L441.447 469.391L442.154 468.684ZM443.016 475.188L442.039 474.972L442.037 474.98L442.035 474.989L443.016 475.188ZM440.467 487V488H441.27L441.443 487.216L440.467 487ZM438.492 487.209L441.093 475.045L439.137 474.627L436.536 486.791L438.492 487.209ZM441.097 475.024C441.309 473.92 441.432 473.047 441.432 472.463H439.432C439.432 472.84 439.344 473.548 439.133 474.648L441.097 475.024ZM441.432 472.463C441.432 471.443 441.178 470.495 440.495 469.807C439.811 469.118 438.865 468.861 437.848 468.861V470.861C438.553 470.861 438.899 471.038 439.076 471.216C439.255 471.396 439.432 471.748 439.432 472.463H441.432ZM437.848 468.861C436.569 468.861 435.354 469.289 434.219 470.077L435.359 471.72C436.216 471.125 437.04 470.861 437.848 470.861V468.861ZM434.214 470.08C433.083 470.875 432.119 472.005 431.303 473.423L433.037 474.42C433.745 473.19 434.527 472.305 435.364 471.717L434.214 470.08ZM431.302 473.426C430.488 474.85 429.889 476.542 429.486 478.482L431.444 478.889C431.815 477.103 432.352 475.619 433.038 474.418L431.302 473.426ZM429.487 478.477L427.711 486.791L429.667 487.209L431.443 478.894L429.487 478.477ZM428.689 486H425.736V488H428.689V486ZM426.715 487.207L432.515 459.856L430.559 459.441L424.758 486.793L426.715 487.207ZM431.537 460.648H434.49V458.648H431.537V460.648ZM433.513 459.434C433.303 460.395 433.098 461.326 432.899 462.228L434.851 462.659C435.051 461.756 435.256 460.824 435.467 459.863L433.513 459.434ZM432.896 462.24C432.71 463.137 432.512 464.051 432.302 464.984L434.253 465.423C434.465 464.48 434.665 463.555 434.854 462.647L432.896 462.24ZM432.3 464.993C432.102 465.91 431.882 466.874 431.637 467.886L433.581 468.356C433.829 467.329 434.054 466.348 434.255 465.413L432.3 464.993ZM431.635 467.897C431.403 468.904 431.131 470.001 430.816 471.187L432.75 471.699C433.069 470.495 433.347 469.377 433.584 468.345L431.635 467.897ZM431.783 472.443H431.977V470.443H431.783V472.443ZM432.771 472.051C433.827 470.668 434.818 469.746 435.732 469.214L434.725 467.485C433.506 468.196 432.329 469.335 431.182 470.836L432.771 472.051ZM435.728 469.216C436.664 468.677 437.618 468.418 438.604 468.418V466.418C437.246 466.418 435.95 466.78 434.729 467.483L435.728 469.216ZM438.604 468.418C439.954 468.418 440.849 468.784 441.442 469.386L442.866 467.981C441.795 466.895 440.324 466.418 438.604 466.418V468.418ZM441.447 469.391C442.052 469.996 442.42 470.906 442.42 472.27H444.42C444.42 470.539 443.944 469.059 442.861 467.976L441.447 469.391ZM442.42 472.27C442.42 472.89 442.303 473.781 442.039 474.972L443.992 475.403C444.268 474.157 444.42 473.102 444.42 472.27H442.42ZM442.035 474.989C441.58 477.241 440.733 481.17 439.49 486.784L441.443 487.216C442.685 481.603 443.537 477.657 443.996 475.386L442.035 474.989ZM440.467 486H437.514V488H440.467V486ZM459.592 468.262L459.021 469.083L459.029 469.088L459.592 468.262ZM461.561 470.758L460.642 471.153L460.902 471.758H461.561V470.758ZM461.754 470.758V471.758H462.438L462.686 471.121L461.754 470.758ZM462.932 467.734V466.734H462.248L462 467.371L462.932 467.734ZM465.164 467.734L466.142 467.942L466.399 466.734H465.164V467.734ZM461.068 487V488H461.878L462.047 487.208L461.068 487ZM458.73 487L457.738 486.877L457.598 488H458.73V487ZM459.188 483.326L460.18 483.45L460.32 482.326H459.188V483.326ZM459.047 483.326V482.326H458.559L458.259 482.71L459.047 483.326ZM456.762 483.291L457.454 484.013L457.458 484.009L456.762 483.291ZM459.504 479.055L460.431 479.43L460.432 479.428L459.504 479.055ZM453.58 471.373L452.889 470.65L452.885 470.654L453.58 471.373ZM451.049 483.924L450.277 484.56L450.283 484.567L451.049 483.924ZM456.709 468.383C457.594 468.383 458.354 468.619 459.021 469.083L460.162 467.44C459.142 466.732 457.98 466.383 456.709 466.383V468.383ZM459.029 469.088C459.691 469.539 460.236 470.209 460.642 471.153L462.479 470.363C461.948 469.127 461.18 468.133 460.154 467.435L459.029 469.088ZM461.561 471.758H461.754V469.758H461.561V471.758ZM462.686 471.121L463.863 468.097L462 467.371L460.822 470.395L462.686 471.121ZM462.932 468.734H465.164V466.734H462.932V468.734ZM464.186 467.526L460.09 486.792L462.047 487.208L466.142 467.942L464.186 467.526ZM461.068 486H458.73V488H461.068V486ZM459.723 487.123L460.18 483.45L458.195 483.203L457.738 486.877L459.723 487.123ZM459.188 482.326H459.047V484.326H459.188V482.326ZM458.259 482.71C456.259 485.269 454.309 486.352 452.42 486.352V488.352C455.172 488.352 457.64 486.75 459.835 483.942L458.259 482.71ZM452.42 486.352C451.061 486.352 450.085 485.885 449.37 484.988L447.806 486.235C448.942 487.658 450.521 488.352 452.42 488.352V486.352ZM449.37 484.988C448.628 484.059 448.199 482.717 448.199 480.848H446.199C446.199 483.009 446.696 484.844 447.806 486.235L449.37 484.988ZM448.199 480.848C448.199 478.526 448.595 476.391 449.376 474.433L447.518 473.692C446.636 475.906 446.199 478.294 446.199 480.848H448.199ZM449.376 474.433C450.157 472.476 451.213 470.993 452.521 469.936L451.264 468.38C449.642 469.691 448.402 471.477 447.518 473.692L449.376 474.433ZM452.521 469.936C453.823 468.884 455.21 468.383 456.709 468.383V466.383C454.716 466.383 452.892 467.065 451.264 468.38L452.521 469.936ZM453.369 485.908C454.847 485.908 456.213 485.202 457.454 484.013L456.07 482.569C455.061 483.536 454.165 483.908 453.369 483.908V485.908ZM457.458 484.009C458.7 482.806 459.685 481.269 460.431 479.43L458.577 478.679C457.916 480.309 457.073 481.597 456.066 482.573L457.458 484.009ZM460.432 479.428C461.179 477.573 461.559 475.7 461.559 473.816H459.559C459.559 475.425 459.235 477.044 458.576 478.681L460.432 479.428ZM461.559 473.816C461.559 472.423 461.175 471.199 460.311 470.257L458.838 471.61C459.286 472.098 459.559 472.796 459.559 473.816H461.559ZM460.311 470.257C459.445 469.314 458.306 468.861 456.99 468.861V470.861C457.807 470.861 458.391 471.123 458.838 471.61L460.311 470.257ZM456.99 468.861C455.465 468.861 454.091 469.502 452.889 470.65L454.271 472.096C455.179 471.229 456.078 470.861 456.99 470.861V468.861ZM452.885 470.654C451.704 471.795 450.811 473.307 450.174 475.141L452.064 475.797C452.623 474.185 453.37 472.967 454.275 472.092L452.885 470.654ZM450.174 475.141C449.538 476.974 449.223 478.902 449.223 480.918H451.223C451.223 479.114 451.505 477.409 452.064 475.797L450.174 475.141ZM449.223 480.918C449.223 482.366 449.517 483.638 450.277 484.56L451.82 483.288C451.479 482.873 451.223 482.142 451.223 480.918H449.223ZM450.283 484.567C451.056 485.487 452.131 485.908 453.369 485.908V483.908C452.615 483.908 452.144 483.673 451.815 483.281L450.283 484.567ZM470.438 484.012L471.351 483.606L471.087 483.012H470.438V484.012ZM470.262 484.012V483.012H469.361L469.267 483.907L470.262 484.012ZM470.191 484.68L471.184 484.799L471.185 484.792L471.186 484.784L470.191 484.68ZM469.998 485.91L469.013 485.735L469.012 485.746L469.01 485.756L469.998 485.91ZM467.994 495.648V496.648H468.806L468.973 495.854L467.994 495.648ZM465.076 495.648L464.098 495.441L463.842 496.648H465.076V495.648ZM470.982 467.734V466.734H470.172L470.004 467.527L470.982 467.734ZM473.426 467.734L474.418 467.858L474.558 466.734H473.426V467.734ZM472.969 471.408L471.976 471.285L471.837 472.408H472.969V471.408ZM473.109 471.408V472.408H473.594L473.895 472.027L473.109 471.408ZM483.445 469.141L482.667 469.768L482.67 469.772L483.445 469.141ZM480.264 485.629L480.89 486.409L480.894 486.405L480.264 485.629ZM475.236 471.531L474.548 470.806L474.544 470.81L475.236 471.531ZM472.459 475.732L471.534 475.353L471.531 475.359L472.459 475.732ZM472.406 483.889L471.675 484.571L471.681 484.577L471.687 484.583L472.406 483.889ZM478.471 483.484L477.785 482.756L477.781 482.76L478.471 483.484ZM480.896 479.441L481.841 479.771L481.841 479.769L480.896 479.441ZM475.412 486.352C474.457 486.352 473.662 486.109 472.989 485.648L471.859 487.298C472.897 488.009 474.094 488.352 475.412 488.352V486.352ZM472.989 485.648C472.303 485.178 471.754 484.511 471.351 483.606L469.524 484.418C470.059 485.622 470.834 486.596 471.859 487.298L472.989 485.648ZM470.438 483.012H470.262V485.012H470.438V483.012ZM469.267 483.907L469.197 484.575L471.186 484.784L471.256 484.116L469.267 483.907ZM469.199 484.561C469.167 484.826 469.106 485.214 469.013 485.735L470.983 486.085C471.077 485.552 471.146 485.12 471.184 484.799L469.199 484.561ZM469.01 485.756C468.933 486.249 468.274 489.454 467.016 495.443L468.973 495.854C470.222 489.913 470.899 486.626 470.986 486.064L469.01 485.756ZM467.994 494.648H465.076V496.648H467.994V494.648ZM466.055 495.855L471.961 467.941L470.004 467.527L464.098 495.441L466.055 495.855ZM470.982 468.734H473.426V466.734H470.982V468.734ZM472.433 467.611L471.976 471.285L473.961 471.532L474.418 467.858L472.433 467.611ZM472.969 472.408H473.109V470.408H472.969V472.408ZM473.895 472.027C475.9 469.485 477.821 468.418 479.648 468.418V466.418C476.952 466.418 474.514 468.011 472.324 470.789L473.895 472.027ZM479.648 468.418C480.982 468.418 481.949 468.878 482.667 469.768L484.224 468.513C483.09 467.106 481.526 466.418 479.648 466.418V468.418ZM482.67 469.772C483.401 470.67 483.834 472.015 483.834 473.939H485.834C485.834 471.739 485.341 469.885 484.221 468.509L482.67 469.772ZM483.834 473.939C483.834 476.314 483.448 478.468 482.689 480.414L484.553 481.141C485.411 478.938 485.834 476.534 485.834 473.939H483.834ZM482.689 480.414C481.931 482.36 480.903 483.822 479.634 484.852L480.894 486.405C482.484 485.115 483.694 483.343 484.553 481.141L482.689 480.414ZM479.637 484.849C478.382 485.858 476.985 486.352 475.412 486.352V488.352C477.449 488.352 479.286 487.697 480.89 486.409L479.637 484.849ZM478.682 468.861C477.207 468.861 475.824 469.593 474.548 470.806L475.925 472.256C476.992 471.243 477.906 470.861 478.682 470.861V468.861ZM474.544 470.81C473.27 472.032 472.271 473.554 471.534 475.353L473.384 476.112C474.03 474.536 474.882 473.257 475.929 472.253L474.544 470.81ZM471.531 475.359C470.805 477.162 470.439 479.017 470.439 480.918H472.439C472.439 479.28 472.753 477.678 473.387 476.106L471.531 475.359ZM470.439 480.918C470.439 482.367 470.803 483.635 471.675 484.571L473.138 483.207C472.72 482.759 472.439 482.047 472.439 480.918H470.439ZM471.687 484.583C472.584 485.512 473.82 485.908 475.236 485.908V483.908C474.191 483.908 473.541 483.624 473.126 483.194L471.687 484.583ZM475.236 485.908C476.7 485.908 478.015 485.3 479.161 484.208L477.781 482.76C476.934 483.568 476.093 483.908 475.236 483.908V485.908ZM479.156 484.212C480.314 483.122 481.195 481.62 481.841 479.771L479.952 479.112C479.379 480.755 478.643 481.948 477.785 482.756L479.156 484.212ZM481.841 479.769C482.489 477.9 482.811 475.925 482.811 473.852H480.811C480.811 475.715 480.522 477.467 479.952 479.114L481.841 479.769ZM482.811 473.852C482.811 472.418 482.534 471.159 481.815 470.242C481.06 469.279 479.952 468.861 478.682 468.861V470.861C479.497 470.861 479.954 471.109 480.241 471.476C480.565 471.889 480.811 472.625 480.811 473.852H482.811ZM491.215 484.012L492.129 483.606L491.865 483.012H491.215V484.012ZM491.039 484.012V483.012H490.139L490.045 483.907L491.039 484.012ZM490.969 484.68L491.962 484.799L491.962 484.792L491.963 484.784L490.969 484.68ZM490.775 485.91L489.791 485.735L489.789 485.746L489.787 485.756L490.775 485.91ZM488.771 495.648V496.648H489.583L489.75 495.854L488.771 495.648ZM485.854 495.648L484.875 495.441L484.62 496.648H485.854V495.648ZM491.76 467.734V466.734H490.949L490.781 467.527L491.76 467.734ZM494.203 467.734L495.195 467.858L495.335 466.734H494.203V467.734ZM493.746 471.408L492.754 471.285L492.614 472.408H493.746V471.408ZM493.887 471.408V472.408H494.372L494.672 472.027L493.887 471.408ZM504.223 469.141L503.444 469.768L503.447 469.772L504.223 469.141ZM501.041 485.629L501.667 486.409L501.671 486.405L501.041 485.629ZM496.014 471.531L495.325 470.806L495.321 470.81L496.014 471.531ZM493.236 475.732L492.311 475.353L492.309 475.359L493.236 475.732ZM493.184 483.889L492.452 484.571L492.458 484.577L492.464 484.583L493.184 483.889ZM499.248 483.484L498.562 482.756L498.558 482.76L499.248 483.484ZM501.674 479.441L502.618 479.771L502.619 479.769L501.674 479.441ZM496.189 486.352C495.234 486.352 494.439 486.109 493.766 485.648L492.636 487.298C493.674 488.009 494.871 488.352 496.189 488.352V486.352ZM493.766 485.648C493.08 485.178 492.531 484.511 492.129 483.606L490.301 484.418C490.836 485.622 491.611 486.596 492.636 487.298L493.766 485.648ZM491.215 483.012H491.039V485.012H491.215V483.012ZM490.045 483.907L489.974 484.575L491.963 484.784L492.034 484.116L490.045 483.907ZM489.976 484.561C489.944 484.826 489.883 485.214 489.791 485.735L491.76 486.085C491.855 485.552 491.923 485.12 491.962 484.799L489.976 484.561ZM489.787 485.756C489.711 486.249 489.052 489.454 487.793 495.443L489.75 495.854C490.999 489.913 491.676 486.626 491.764 486.064L489.787 485.756ZM488.771 494.648H485.854V496.648H488.771V494.648ZM486.832 495.855L492.738 467.941L490.781 467.527L484.875 495.441L486.832 495.855ZM491.76 468.734H494.203V466.734H491.76V468.734ZM493.211 467.611L492.754 471.285L494.738 471.532L495.195 467.858L493.211 467.611ZM493.746 472.408H493.887V470.408H493.746V472.408ZM494.672 472.027C496.677 469.485 498.599 468.418 500.426 468.418V466.418C497.729 466.418 495.292 468.011 493.101 470.789L494.672 472.027ZM500.426 468.418C501.759 468.418 502.727 468.878 503.444 469.768L505.001 468.513C503.867 467.106 502.303 466.418 500.426 466.418V468.418ZM503.447 469.772C504.179 470.67 504.611 472.015 504.611 473.939H506.611C506.611 471.739 506.118 469.885 504.998 468.509L503.447 469.772ZM504.611 473.939C504.611 476.314 504.225 478.468 503.467 480.414L505.33 481.141C506.189 478.938 506.611 476.534 506.611 473.939H504.611ZM503.467 480.414C502.708 482.36 501.68 483.822 500.411 484.852L501.671 486.405C503.261 485.115 504.472 483.343 505.33 481.141L503.467 480.414ZM500.415 484.849C499.16 485.858 497.762 486.352 496.189 486.352V488.352C498.226 488.352 500.063 487.697 501.667 486.409L500.415 484.849ZM499.459 468.861C497.984 468.861 496.602 469.593 495.325 470.806L496.702 472.256C497.769 471.243 498.684 470.861 499.459 470.861V468.861ZM495.321 470.81C494.048 472.032 493.048 473.554 492.311 475.353L494.162 476.112C494.807 474.536 495.659 473.257 496.706 472.253L495.321 470.81ZM492.309 475.359C491.583 477.162 491.217 479.017 491.217 480.918H493.217C493.217 479.28 493.531 477.678 494.164 476.106L492.309 475.359ZM491.217 480.918C491.217 482.367 491.58 483.635 492.452 484.571L493.915 483.207C493.498 482.759 493.217 482.047 493.217 480.918H491.217ZM492.464 484.583C493.361 485.512 494.598 485.908 496.014 485.908V483.908C494.969 483.908 494.318 483.624 493.903 483.194L492.464 484.583ZM496.014 485.908C497.477 485.908 498.793 485.3 499.938 484.208L498.558 482.76C497.711 483.568 496.87 483.908 496.014 483.908V485.908ZM499.934 484.212C501.091 483.122 501.973 481.62 502.618 479.771L500.73 479.112C500.156 480.755 499.421 481.948 498.562 482.756L499.934 484.212ZM502.619 479.769C503.267 477.9 503.588 475.925 503.588 473.852H501.588C501.588 475.715 501.3 477.467 500.729 479.114L502.619 479.769ZM503.588 473.852C503.588 472.418 503.311 471.159 502.593 470.242C501.837 469.279 500.73 468.861 499.459 468.861V470.861C500.274 470.861 500.731 471.109 501.019 471.476C501.343 471.889 501.588 472.625 501.588 473.852H503.588ZM509.109 467.734V466.734H507.949L508.12 467.882L509.109 467.734ZM512.062 467.734L513.053 467.6L512.936 466.734H512.062V467.734ZM513.363 477.314L512.372 477.449L512.374 477.458L513.363 477.314ZM513.697 480.9L512.699 480.967L512.7 480.975L513.697 480.9ZM513.873 484.697H512.873V485.697H513.873V484.697ZM513.979 484.697V485.697H514.654L514.906 485.07L513.979 484.697ZM516.861 478.439L517.726 478.942L517.735 478.926L517.744 478.91L516.861 478.439ZM522.574 467.734V466.734H521.974L521.692 467.264L522.574 467.734ZM525.703 467.734L526.582 468.211L527.384 466.734H525.703V467.734ZM513.469 490.27L512.59 489.792L512.589 489.794L513.469 490.27ZM503.924 495.279H502.924V496.017L503.629 496.235L503.924 495.279ZM503.924 492.906L504.199 491.945L502.924 491.581V492.906H503.924ZM508.688 492.326L508.041 491.563L508.034 491.569L508.027 491.575L508.688 492.326ZM510.691 489.707L509.818 489.219L509.817 489.221L510.691 489.707ZM512.027 487.316L512.9 487.804L513.067 487.506L513.016 487.169L512.027 487.316ZM509.109 468.734H512.062V466.734H509.109V468.734ZM511.072 467.869L512.372 477.449L514.354 477.18L513.053 467.6L511.072 467.869ZM512.374 477.458C512.485 478.227 512.594 479.391 512.699 480.967L514.695 480.834C514.589 479.245 514.476 478.019 514.353 477.171L512.374 477.458ZM512.7 480.975C512.816 482.534 512.873 483.772 512.873 484.697H514.873C514.873 483.701 514.813 482.408 514.694 480.826L512.7 480.975ZM513.873 485.697H513.979V483.697H513.873V485.697ZM514.906 485.07C515.309 484.07 515.812 482.914 516.416 481.6L514.599 480.764C513.985 482.098 513.469 483.285 513.051 484.324L514.906 485.07ZM516.416 481.6C517.026 480.274 517.46 479.4 517.726 478.942L515.997 477.937C515.677 478.487 515.208 479.441 514.599 480.764L516.416 481.6ZM517.744 478.91L523.456 468.205L521.692 467.264L515.979 477.969L517.744 478.91ZM522.574 468.734H525.703V466.734H522.574V468.734ZM524.824 467.257L512.59 489.792L514.348 490.747L526.582 468.211L524.824 467.257ZM512.589 489.794C511.525 491.761 510.532 493.01 509.641 493.665L510.827 495.276C512.069 494.361 513.232 492.809 514.348 490.745L512.589 489.794ZM509.641 493.665C508.769 494.308 507.701 494.648 506.385 494.648V496.648C508.069 496.648 509.567 496.204 510.827 495.276L509.641 493.665ZM506.385 494.648C505.64 494.648 504.919 494.54 504.219 494.324L503.629 496.235C504.522 496.511 505.442 496.648 506.385 496.648V494.648ZM504.924 495.279V492.906H502.924V495.279H504.924ZM503.649 493.868C504.48 494.105 505.34 494.223 506.227 494.223V492.223C505.519 492.223 504.844 492.129 504.199 491.945L503.649 493.868ZM506.227 494.223C507.414 494.223 508.474 493.846 509.348 493.077L508.027 491.575C507.542 492.002 506.961 492.223 506.227 492.223V494.223ZM509.334 493.089C510.15 492.398 510.887 491.414 511.566 490.193L509.817 489.221C509.207 490.321 508.608 491.083 508.041 491.563L509.334 493.089ZM511.564 490.195L512.9 487.804L511.154 486.829L509.818 489.219L511.564 490.195ZM513.016 487.169L510.098 467.587L508.12 467.882L511.038 487.464L513.016 487.169Z" fill="white"/>
<circle cx="737" cy="7" r="7" fill="white"/>
<circle cx="7" cy="739" r="7" fill="white"/>
<path d="M642 369C642 518.117 521.117 639 372 639C222.883 639 102 518.117 102 369C102 219.883 222.883 99 372 99C521.117 99 642 219.883 642 369ZM111.166 369C111.166 513.055 227.945 629.834 372 629.834C516.055 629.834 632.834 513.055 632.834 369C632.834 224.945 516.055 108.166 372 108.166C227.945 108.166 111.166 224.945 111.166 369Z" fill="url(#paint1_linear)" fill-opacity="0.5"/>
<defs>
<linearGradient id="paint0_linear" x1="176.5" y1="702.5" x2="854" y2="-196.5" gradientUnits="userSpaceOnUse">
<stop/>
<stop offset="1" stop-color="white"/>
</linearGradient>
<linearGradient id="paint1_linear" x1="251.774" y1="526.415" x2="610.5" y2="48.5" gradientUnits="userSpaceOnUse">
<stop/>
<stop offset="1" stop-color="white"/>
</linearGradient>
</defs>
</svg>
